Coordinates
version=1
nRows=17
nColumns=40
inDegrees=yes

Units are S.I. units (second, meters, Newtons, ...)
Angles are in degrees.

endheader
time	pelvis_tilt	pelvis_list	pelvis_rotation	pelvis_tx	pelvis_ty	pelvis_tz	hip_flexion_r	hip_adduction_r	hip_rotation_r	knee_angle_r	knee_angle_r_beta	ankle_angle_r	subtalar_angle_r	mtp_angle_r	hip_flexion_l	hip_adduction_l	hip_rotation_l	knee_angle_l	knee_angle_l_beta	ankle_angle_l	subtalar_angle_l	mtp_angle_l	lumbar_extension	lumbar_bending	lumbar_rotation	arm_flex_r	arm_add_r	arm_rot_r	elbow_flex_r	pro_sup_r	wrist_flex_r	wrist_dev_r	arm_flex_l	arm_add_l	arm_rot_l	elbow_flex_l	pro_sup_l	wrist_flex_l	wrist_dev_l
      7.79000000	     -2.97787913	     -4.11696125	     -0.99848658	      0.74104688	      0.92380471	      0.49990904	     20.07651998	      2.48120623	     -9.49998475	     23.03557490	     23.03557490	      7.69023969	     -3.28721356	     -2.77137353	      5.31549913	     -8.76657723	     -4.33582244	     37.17255814	     37.17255814	     14.88735552	    -13.12795059	     -6.60650395	     -8.98726933	      8.20373570	     -0.15886769	      2.83897713	    -14.22782897	    -11.80666341	     41.77237499	     46.16902023	      0.00000000	      0.00000000	     10.78533172	    -12.43320607	     -3.52939727	     76.59192622	     47.40832009	      0.00000000	      0.00000000
      7.80400000	     -2.92588423	     -4.09996199	     -0.68526112	      0.74102024	      0.92484881	      0.50248361	     19.33524514	      2.47004723	    -10.22505636	     22.74768708	     22.74768708	      8.12876602	     -2.33734304	     -2.79416604	      7.02378068	     -9.14575848	     -3.75201149	     40.77433471	     40.77433471	     13.18879636	    -14.32056632	     -6.77051170	     -8.93901740	      8.16212474	     -0.13245672	      4.02888335	    -14.68068663	    -11.16936541	     43.43188951	     46.06776254	      0.00000000	      0.00000000	     10.61670545	    -12.11138022	     -3.11965184	     74.30641437	     47.35396805	      0.00000000	      0.00000000
      7.81800000	     -2.81956588	     -4.22102887	     -0.39210418	      0.74086547	      0.92590027	      0.50514876	     18.46949607	      2.70596176	    -10.71198599	     22.29063763	     22.29063763	      8.37542753	     -1.88246061	     -2.76755447	      8.72445104	     -9.74254346	     -3.36175810	     44.31324060	     44.31324060	     11.68238883	    -15.13136661	     -6.56643879	     -9.04502217	      8.19615002	      0.06259453	      5.43721245	    -15.10852799	    -11.10762580	     44.27934940	     46.03941814	      0.00000000	      0.00000000	     10.04608844	    -11.75946336	     -2.80558142	     73.38261780	     47.31569017	      0.00000000	      0.00000000
      7.83200000	     -2.82253780	     -4.20925706	     -0.07188054	      0.74049312	      0.92682866	      0.50744948	     17.74837187	      2.68187167	    -11.54204829	     21.91354120	     21.91354120	      8.88576228	     -0.68833518	     -2.44506787	     10.66117050	    -10.05567372	     -2.81214293	     47.86335856	     47.86335856	     11.44734295	    -15.52227254	     -2.97199302	     -8.92635539	      8.16000407	      0.54853781	      5.90660157	    -16.06165425	     -9.73511031	     46.81166024	     45.86045096	      0.00000000	      0.00000000	     10.33555307	    -11.17754810	     -2.22359309	     69.79331019	     47.23983334	      0.00000000	      0.00000000
      7.84600000	     -2.76468245	     -4.23348857	      0.25057447	      0.74001224	      0.92777224	      0.50968247	     16.96675839	      2.73144760	    -12.28059160	     21.51339023	     21.51339023	      9.22709119	      0.23638167	     -2.32778891	     12.45390769	    -10.43886396	     -2.42931426	     50.97070347	     50.97070347	     11.16772839	    -15.91340820	      0.02505480	     -8.93973395	      8.12988371	      0.72484104	      7.09080461	    -16.63942266	     -9.42841386	     48.09760940	     45.79359641	      0.00000000	      0.00000000	      9.95233348	    -10.74511863	     -1.93509451	     67.50998658	     47.19513634	      0.00000000	      0.00000000
      7.86000000	     -2.70241915	     -4.27134521	      0.55634061	      0.73938138	      0.92873446	      0.51186712	     16.11831228	      2.86786139	    -12.81700399	     20.94781102	     20.94781102	      9.44532788	      0.90498622	     -2.28200723	     14.10461541	    -10.90157019	     -2.29091568	     53.44632078	     53.44632078	     10.32801351	    -16.57080067	      1.20081223	     -8.92996088	      8.11079550	      0.54120404	      8.70526254	    -16.91682179	     -9.45643155	     49.12334343	     45.76395769	      0.00000000	      0.00000000	      9.13056416	    -10.70780444	     -1.77052499	     65.73726928	     47.15291776	      0.00000000	      0.00000000
      7.87400000	     -2.61688758	     -4.24049011	      0.86991519	      0.73856632	      0.92981792	      0.51373600	     15.32565843	      2.85222004	    -13.57129432	     20.54111214	     20.54111214	      9.72273460	      1.91387913	     -2.19082740	     15.73810985	    -11.21087036	     -2.15157403	     55.60260983	     55.60260983	     10.80451082	    -16.82382436	      5.17104014	     -8.96777186	      8.04909423	      0.92970213	      9.84757132	    -17.64009552	     -9.06540462	     50.26377390	     45.70506421	      0.00000000	      0.00000000	      9.19886911	    -10.00491162	     -1.95875233	     61.98475798	     47.11658853	      0.00000000	      0.00000000
      7.88800000	     -2.56724751	     -4.34528938	      1.22251661	      0.73762252	      0.93069706	      0.51553664	     14.50380808	      3.09357485	    -13.96757819	     19.92111924	     19.92111924	      9.89309347	      2.29843882	     -2.09746989	     17.27068908	    -11.72445318	     -2.10209258	     57.04382307	     57.04382307	     10.41067159	    -17.40502904	      5.84679062	     -9.01315711	      8.11863868	      0.85413459	     11.28422198	    -17.99529974	     -9.21715890	     51.13473329	     45.68733498	      0.00000000	      0.00000000	      8.19313501	     -9.88679596	     -1.80090252	     60.59326327	     47.07548460	      0.00000000	      0.00000000
      7.90200000	     -2.46324736	     -4.20918978	      1.41563122	      0.73658772	      0.93171341	      0.51721665	     13.76612707	      3.07719903	    -14.12190483	     19.57176373	     19.57176373	     10.12061529	      2.54282444	     -2.09234528	     18.48807786	    -12.03931228	     -2.47056579	     57.74042991	     57.74042991	     10.18952550	    -17.81576915	      6.20691137	     -9.17619772	      7.89464355	      1.19601835	     12.65748672	    -18.59333907	     -9.38747082	     51.76650549	     45.67982210	      0.00000000	      0.00000000	      7.18182012	     -9.65425261	     -1.69422434	     59.53217264	     47.04309789	      0.00000000	      0.00000000
      7.91600000	     -2.40918086	     -4.36302626	      1.89106072	      0.73540658	      0.93281694	      0.51854589	     12.78078167	      3.34055733	    -14.89313354	     18.62260414	     18.62260414	     10.15589727	      3.43965635	     -1.96644279	     19.86851705	    -12.48356565	     -2.36558707	     58.00823375	     58.00823375	     10.47069460	    -18.12368902	      7.53761142	     -9.14571825	      8.14607468	      0.48121383	     14.45632626	    -18.46280602	     -9.37864348	     53.08328044	     45.64037868	      0.00000000	      0.00000000	      6.40703403	     -9.68201206	     -1.76559858	     56.04707544	     46.99420164	      0.00000000	      0.00000000
      7.93000000	     -2.36039099	     -4.15114625	      2.15890297	      0.73404799	      0.93383362	      0.51958438	     12.11032787	      3.15771811	    -15.31644067	     18.26928966	     18.26928966	     10.39051833	      4.09179077	     -1.95248548	     21.07220485	    -12.48422932	     -2.57341869	     57.78389487	     57.78389487	     11.85318534	    -18.05064510	     11.14101514	     -9.15160897	      7.96979967	      1.37891375	     15.07575925	    -19.39487612	     -9.50704835	     54.28335897	     45.60344440	      0.00000000	      0.00000000	      7.34932620	     -8.54612908	     -2.77557419	     50.07694436	     46.99906320	      0.00000000	      0.00000000
      7.94400000	     -2.32880208	     -4.08355589	      2.47239812	      0.73262189	      0.93472223	      0.52062377	     11.38383804	      3.20325152	    -15.60432320	     17.72289872	     17.72289872	     10.50410781	      4.40357540	     -1.88752677	     22.07474048	    -12.64449563	     -2.82273946	     56.72923729	     56.72923729	     12.09480926	    -18.17939361	     11.38695531	     -9.23065702	      7.93792054	      1.21121307	     16.59203328	    -19.52926544	     -9.75537800	     55.30813187	     45.58491539	      0.00000000	      0.00000000	      6.16091256	     -8.57553423	     -2.72261059	     48.48717380	     46.96056339	      0.00000000	      0.00000000
      7.95800000	     -2.26428045	     -4.00757184	      2.79963494	      0.73113096	      0.93554966	      0.52145029	     10.65238557	      3.21136169	    -15.97690563	     17.23145005	     17.23145005	     10.65693680	      4.85345040	     -1.88799721	     22.90647831	    -12.70647753	     -3.03760720	     55.13658398	     55.13658398	     12.38727879	    -18.18652002	     11.66902471	     -9.31840978	      7.92420429	      0.95542257	     18.09816364	    -19.56559390	     -9.96989653	     56.41814470	     45.56175086	      0.00000000	      0.00000000	      5.26273000	     -8.57717268	     -2.78927513	     45.94001162	     46.92541256	      0.00000000	      0.00000000
      7.97200000	     -2.26067224	     -3.93333101	      3.07618879	      0.72952856	      0.93606904	      0.52215847	     10.07169667	      3.20337948	    -16.29813345	     16.88298210	     16.88298210	     10.84639668	      5.21737045	     -1.93592898	     23.66647795	    -12.68746902	     -3.24277234	     53.08425681	     53.08425681	     12.67225804	    -18.11846227	     11.83783943	     -9.31439336	      7.91335020	      0.98475498	     19.44693015	    -19.77417259	    -10.21296942	     57.46936206	     45.54138570	      0.00000000	      0.00000000	      4.53450919	     -8.44397070	     -2.93072878	     43.20589066	     46.89852412	      0.00000000	      0.00000000
      7.98600000	     -2.32572868	     -3.88119295	      3.34531744	      0.72780744	      0.93636144	      0.52269721	      9.63287028	      3.17519529	    -16.67041955	     16.66187393	     16.66187393	     11.06590481	      5.66379397	     -2.01479151	     24.35458612	    -12.63790253	     -3.48675553	     50.54562115	     50.54562115	     12.71042952	    -17.99720593	     11.58999309	     -9.25359285	      7.95754118	      1.54362110	     20.18801932	    -20.29461133	    -10.81352025	     58.92308094	     45.51908877	      0.00000000	      0.00000000	      4.92746364	     -7.88462399	     -3.57849963	     38.33511372	     46.90461063	      0.00000000	      0.00000000
      8.00000000	     -2.31904934	     -3.83993851	      3.58665817	      0.72612518	      0.93656464	      0.52320462	      9.12227066	      3.21162333	    -16.81345297	     16.42892726	     16.42892726	     11.28828024	      5.74962251	     -2.04161516	     24.82826282	    -12.52830316	     -3.67507151	     47.67089174	     47.67089174	     12.83168051	    -17.77172097	     11.76114119	     -9.31415636	      7.98770863	      1.39122158	     21.55840415	    -20.24914303	    -11.09472873	     60.17423829	     45.49326963	      0.00000000	      0.00000000	      3.65821389	     -8.01558467	     -3.60594649	     36.98470678	     46.87328745	      0.00000000	      0.00000000
      8.01400000	     -2.39985111	     -3.81053633	      3.76486538	      0.72434431	      0.93642393	      0.52363542	      8.76954864	      3.23299494	    -16.94188595	     16.30317323	     16.30317323	     11.55743522	      5.86763475	     -2.12591235	     25.31377778	    -12.40449955	     -3.90062450	     44.59406455	     44.59406455	     12.91417123	    -17.36719896	     11.93906064	     -9.28697570	      8.01400843	      1.40510513	     22.85222525	    -20.33025981	    -11.30841921	     61.26187693	     45.47034513	      0.00000000	      0.00000000	      2.44594026	     -8.07742010	     -3.58420659	     35.69104952	     46.84116095	      0.00000000	      0.00000000
